<!--
Made with circle-stitcher 0.0.1
https://github.com/rbedia/circle-stitcher
-->
<svg xmlns="http://www.w3.org/2000/svg" viewBox="0 0 350 350" width="700" height="700"><style>
.hole {
    fill: #EBE4D6;
    stroke: #333333;
    r: 2px;
}
.index {
    font-size: 8px;
    text-anchor: middle;
}
.front {
    stroke: #2B8FF3;
    stroke-width: 1px;
}
.back {
    stroke: #F50C00;
    stroke-width: 1px;
}
.summary {
    font-size: 12px;
}

.seq0 {
    fill: #000000
}

.seq1 {
    fill: #099A3C
}

.seq2 {
    fill: #8B1828
}

.seq3 {
    fill: #515F45
}
</style><rect x="0" y="0" width="350" height="350" fill="#ffffff"/><circle stroke="#dddddd" cx="175.0" cy="175.0" r="67.2" fill="#EBE4D6"/><circle class="hole" cx="280.6" cy="175.0"/><circle class="hole" cx="270.8" cy="189.4"/><circle class="hole" cx="256.8" cy="200.2"/><circle class="hole" cx="245.6" cy="209.0"/><circle class="hole" cx="239.7" cy="219.1"/><circle class="hole" cx="237.7" cy="233.2"/><circle class="hole" cx="235.4" cy="250.7"/><circle class="hole" cx="227.8" cy="266.5"/><circle class="hole" cx="210.4" cy="265.2"/><circle class="hole" cx="194.0" cy="258.4"/><circle class="hole" cx="180.9" cy="253.1"/><circle class="hole" cx="169.1" cy="253.1"/><circle class="hole" cx="156.0" cy="258.4"/><circle class="hole" cx="139.6" cy="265.2"/><circle class="hole" cx="122.2" cy="266.5"/><circle class="hole" cx="114.6" cy="250.7"/><circle class="hole" cx="112.3" cy="233.2"/><circle class="hole" cx="110.3" cy="219.1"/><circle class="hole" cx="104.4" cy="209.0"/><circle class="hole" cx="93.2" cy="200.2"/><circle class="hole" cx="79.2" cy="189.4"/><circle class="hole" cx="69.4" cy="175.0"/><circle class="hole" cx="79.2" cy="160.6"/><circle class="hole" cx="93.2" cy="149.8"/><circle class="hole" cx="104.4" cy="141.0"/><circle class="hole" cx="110.3" cy="130.9"/><circle class="hole" cx="112.3" cy="116.8"/><circle class="hole" cx="114.6" cy="99.3"/><circle class="hole" cx="122.2" cy="83.5"/><circle class="hole" cx="139.6" cy="84.8"/><circle class="hole" cx="156.0" cy="91.6"/><circle class="hole" cx="169.1" cy="96.9"/><circle class="hole" cx="180.9" cy="96.9"/><circle class="hole" cx="194.0" cy="91.6"/><circle class="hole" cx="210.4" cy="84.8"/><circle class="hole" cx="227.8" cy="83.5"/><circle class="hole" cx="235.4" cy="99.3"/><circle class="hole" cx="237.7" cy="116.8"/><circle class="hole" cx="239.7" cy="130.9"/><circle class="hole" cx="245.6" cy="141.0"/><circle class="hole" cx="256.8" cy="149.8"/><circle class="hole" cx="270.8" cy="160.6"/><a href="https://github.com/rbedia/circle-stitcher"><text font-size="10" fill="#777777" transform="rotate(90 340 5)" x="340" y="5">circle-stitcher 0.0.1</text></a><text class="summary" x="10" y="345">Instructions: H 42 OC 1.1 K 0.8 N 6 M 3 IC 0.7 L 16,3</text><text class="index seq0" transform="rotate(90.0 289.6 175.0)" x="289.6" y="175.0">1</text><line class="front" x1="280.6" y1="175.0" x2="112.3" y2="233.2"/><text class="index seq0" transform="rotate(227.1 106.9 238.2)" x="106.9" y="238.2">2</text><line class="back" x1="112.3" y1="233.2" x2="93.2" y2="200.2"/><text class="index seq0" transform="rotate(252.9 86.3 202.4)" x="86.3" y="202.4">3</text><line class="front" x1="93.2" y1="200.2" x2="227.8" y2="83.5"/><text class="index seq0" transform="rotate(390.0 232.3 75.8)" x="232.3" y="75.8">4</text><line class="back" x1="227.8" y1="83.5" x2="239.7" y2="130.9"/><text class="index seq0" transform="rotate(415.7 245.2 127.1)" x="245.2" y="127.1">5</text><line class="front" x1="239.7" y1="130.9" x2="156.0" y2="258.4"/><text class="index seq0" transform="rotate(552.9 154.3 265.5)" x="154.3" y="265.5">6</text><line class="back" x1="156.0" y1="258.4" x2="114.6" y2="250.7"/><text class="index seq0" transform="rotate(218.6 109.5 257.2)" x="109.5" y="257.2">7</text><line class="front" x1="114.6" y1="250.7" x2="169.1" y2="96.9"/><text class="index seq0" transform="rotate(355.7 168.6 90.2)" x="168.6" y="90.2">8</text><line class="back" x1="169.1" y1="96.9" x2="210.4" y2="84.8"/><text class="index seq0" transform="rotate(381.4 213.4 77.1)" x="213.4" y="77.1">9</text><line class="front" x1="210.4" y1="84.8" x2="210.4" y2="265.2"/><text class="index seq0" transform="rotate(518.6 213.4 272.9)" x="213.4" y="272.9">10</text><line class="back" x1="210.4" y1="265.2" x2="169.1" y2="253.1"/><text class="index seq0" transform="rotate(184.3 168.6 259.8)" x="168.6" y="259.8">11</text><line class="front" x1="169.1" y1="253.1" x2="114.6" y2="99.3"/><text class="index seq0" transform="rotate(321.4 109.5 92.8)" x="109.5" y="92.8">12</text><line class="back" x1="114.6" y1="99.3" x2="156.0" y2="91.6"/><text class="index seq0" transform="rotate(347.1 154.3 84.5)" x="154.3" y="84.5">13</text><line class="front" x1="156.0" y1="91.6" x2="239.7" y2="219.1"/><text class="index seq0" transform="rotate(484.3 245.2 222.9)" x="245.2" y="222.9">14</text><line class="back" x1="239.7" y1="219.1" x2="227.8" y2="266.5"/><text class="index seq0" transform="rotate(150.0 232.3 274.2)" x="232.3" y="274.2">15</text><line class="front" x1="227.8" y1="266.5" x2="93.2" y2="149.8"/><text class="index seq0" transform="rotate(287.1 86.3 147.6)" x="86.3" y="147.6">16</text><line class="back" x1="93.2" y1="149.8" x2="112.3" y2="116.8"/><text class="index seq0" transform="rotate(312.9 106.9 111.8)" x="106.9" y="111.8">17</text><line class="front" x1="112.3" y1="116.8" x2="280.6" y2="175.0"/><text class="index seq0" transform="rotate(450.0 297.6 175.0)" x="297.6" y="175.0">18</text><line class="back" x1="280.6" y1="175.0" x2="245.6" y2="209.0"/><text class="index seq0" transform="rotate(115.7 251.6 211.9)" x="251.6" y="211.9">19</text><line class="front" x1="245.6" y1="209.0" x2="93.2" y2="200.2"/><text class="index seq0" transform="rotate(252.9 80.1 204.3)" x="80.1" y="204.3">20</text><line class="back" x1="93.2" y1="200.2" x2="79.2" y2="160.6"/><text class="index seq0" transform="rotate(278.6 71.0 159.3)" x="71.0" y="159.3">21</text><line class="front" x1="79.2" y1="160.6" x2="239.7" y2="130.9"/><text class="index seq0" transform="rotate(415.7 250.1 123.8)" x="250.1" y="123.8">22</text><line class="back" x1="239.7" y1="130.9" x2="270.8" y2="160.6"/><text class="index seq0" transform="rotate(441.4 279.0 159.3)" x="279.0" y="159.3">23</text><line class="front" x1="270.8" y1="160.6" x2="114.6" y2="250.7"/><text class="index seq0" transform="rotate(578.6 104.9 262.9)" x="104.9" y="262.9">24</text><line class="back" x1="114.6" y1="250.7" x2="104.4" y2="209.0"/><text class="index seq0" transform="rotate(244.3 98.4 211.9)" x="98.4" y="211.9">25</text><line class="front" x1="104.4" y1="209.0" x2="210.4" y2="84.8"/><text class="index seq0" transform="rotate(381.4 216.1 70.3)" x="216.1" y="70.3">26</text><line class="back" x1="210.4" y1="84.8" x2="237.7" y2="116.8"/><text class="index seq0" transform="rotate(407.1 243.1 111.8)" x="243.1" y="111.8">27</text><line class="front" x1="237.7" y1="116.8" x2="169.1" y2="253.1"/><text class="index seq0" transform="rotate(544.3 168.2 265.7)" x="168.2" y="265.7">28</text><line class="back" x1="169.1" y1="253.1" x2="122.2" y2="266.5"/><text class="index seq0" transform="rotate(210.0 117.7 274.2)" x="117.7" y="274.2">29</text><line class="front" x1="122.2" y1="266.5" x2="156.0" y2="91.6"/><text class="index seq0" transform="rotate(347.1 152.9 78.1)" x="152.9" y="78.1">30</text><line class="back" x1="156.0" y1="91.6" x2="194.0" y2="91.6"/><text class="index seq0" transform="rotate(372.9 195.7 84.5)" x="195.7" y="84.5">31</text><line class="front" x1="194.0" y1="91.6" x2="227.8" y2="266.5"/><text class="index seq0" transform="rotate(510.0 236.3 281.2)" x="236.3" y="281.2">32</text><line class="back" x1="227.8" y1="266.5" x2="180.9" y2="253.1"/><text class="index seq0" transform="rotate(175.7 181.4 259.8)" x="181.4" y="259.8">33</text><line class="front" x1="180.9" y1="253.1" x2="112.3" y2="116.8"/><text class="index seq0" transform="rotate(312.9 102.2 107.4)" x="102.2" y="107.4">34</text><line class="back" x1="112.3" y1="116.8" x2="139.6" y2="84.8"/><text class="index seq0" transform="rotate(338.6 136.6 77.1)" x="136.6" y="77.1">35</text><line class="front" x1="139.6" y1="84.8" x2="245.6" y2="209.0"/><text class="index seq0" transform="rotate(475.7 256.9 214.4)" x="256.9" y="214.4">36</text><line class="back" x1="245.6" y1="209.0" x2="235.4" y2="250.7"/><text class="index seq0" transform="rotate(141.4 240.5 257.2)" x="240.5" y="257.2">37</text><line class="front" x1="235.4" y1="250.7" x2="79.2" y2="160.6"/><text class="index seq0" transform="rotate(278.6 63.8 158.2)" x="63.8" y="158.2">38</text><line class="back" x1="79.2" y1="160.6" x2="110.3" y2="130.9"/><text class="index seq0" transform="rotate(304.3 104.8 127.1)" x="104.8" y="127.1">39</text><line class="front" x1="110.3" y1="130.9" x2="270.8" y2="160.6"/><text class="index seq0" transform="rotate(441.4 286.2 158.2)" x="286.2" y="158.2">40</text><line class="back" x1="270.8" y1="160.6" x2="256.8" y2="200.2"/><text class="index seq0" transform="rotate(467.1 263.7 202.4)" x="263.7" y="202.4">41</text><line class="front" x1="256.8" y1="200.2" x2="104.4" y2="209.0"/><text class="index seq0" transform="rotate(244.3 93.1 214.4)" x="93.1" y="214.4">42</text><line class="back" x1="104.4" y1="209.0" x2="69.4" y2="175.0"/><text class="index seq0" transform="rotate(270.0 60.4 175.0)" x="60.4" y="175.0">43</text><line class="front" x1="69.4" y1="175.0" x2="237.7" y2="116.8"/><text class="index seq0" transform="rotate(407.1 247.8 107.4)" x="247.8" y="107.4">44</text><line class="back" x1="237.7" y1="116.8" x2="256.8" y2="149.8"/><text class="index seq0" transform="rotate(432.9 263.7 147.6)" x="263.7" y="147.6">45</text><line class="front" x1="256.8" y1="149.8" x2="122.2" y2="266.5"/><text class="index seq0" transform="rotate(570.0 113.7 281.2)" x="113.7" y="281.2">46</text><line class="back" x1="122.2" y1="266.5" x2="110.3" y2="219.1"/><text class="index seq0" transform="rotate(235.7 104.8 222.9)" x="104.8" y="222.9">47</text><line class="front" x1="110.3" y1="219.1" x2="194.0" y2="91.6"/><text class="index seq0" transform="rotate(372.9 197.1 78.1)" x="197.1" y="78.1">48</text><line class="back" x1="194.0" y1="91.6" x2="235.4" y2="99.3"/><text class="index seq0" transform="rotate(398.6 240.5 92.8)" x="240.5" y="92.8">49</text><line class="front" x1="235.4" y1="99.3" x2="180.9" y2="253.1"/><text class="index seq0" transform="rotate(535.7 181.8 265.7)" x="181.8" y="265.7">50</text><line class="back" x1="180.9" y1="253.1" x2="139.6" y2="265.2"/><text class="index seq0" transform="rotate(201.4 136.6 272.9)" x="136.6" y="272.9">51</text><line class="front" x1="139.6" y1="265.2" x2="139.6" y2="84.8"/><text class="index seq0" transform="rotate(338.6 133.9 70.3)" x="133.9" y="70.3">52</text><line class="back" x1="139.6" y1="84.8" x2="180.9" y2="96.9"/><text class="index seq0" transform="rotate(364.3 181.4 90.2)" x="181.4" y="90.2">53</text><line class="front" x1="180.9" y1="96.9" x2="235.4" y2="250.7"/><text class="index seq0" transform="rotate(501.4 245.1 262.9)" x="245.1" y="262.9">54</text><line class="back" x1="235.4" y1="250.7" x2="194.0" y2="258.4"/><text class="index seq0" transform="rotate(167.1 195.7 265.5)" x="195.7" y="265.5">55</text><line class="front" x1="194.0" y1="258.4" x2="110.3" y2="130.9"/><text class="index seq0" transform="rotate(304.3 99.9 123.8)" x="99.9" y="123.8">56</text><line class="back" x1="110.3" y1="130.9" x2="122.2" y2="83.5"/><text class="index seq0" transform="rotate(330.0 117.7 75.8)" x="117.7" y="75.8">57</text><line class="front" x1="122.2" y1="83.5" x2="256.8" y2="200.2"/><text class="index seq0" transform="rotate(467.1 269.9 204.3)" x="269.9" y="204.3">58</text><line class="back" x1="256.8" y1="200.2" x2="237.7" y2="233.2"/><text class="index seq0" transform="rotate(132.9 243.1 238.2)" x="243.1" y="238.2">59</text><line class="front" x1="237.7" y1="233.2" x2="69.4" y2="175.0"/><text class="index seq0" transform="rotate(270.0 52.4 175.0)" x="52.4" y="175.0">60</text><line class="back" x1="69.4" y1="175.0" x2="104.4" y2="141.0"/><text class="index seq0" transform="rotate(295.7 98.4 138.1)" x="98.4" y="138.1">61</text><line class="front" x1="104.4" y1="141.0" x2="256.8" y2="149.8"/><text class="index seq0" transform="rotate(432.9 269.9 145.7)" x="269.9" y="145.7">62</text><line class="back" x1="256.8" y1="149.8" x2="270.8" y2="189.4"/><text class="index seq0" transform="rotate(458.6 279.0 190.7)" x="279.0" y="190.7">63</text><line class="front" x1="270.8" y1="189.4" x2="110.3" y2="219.1"/><text class="index seq0" transform="rotate(235.7 99.9 226.2)" x="99.9" y="226.2">64</text><line class="back" x1="110.3" y1="219.1" x2="79.2" y2="189.4"/><text class="index seq0" transform="rotate(261.4 71.0 190.7)" x="71.0" y="190.7">65</text><line class="front" x1="79.2" y1="189.4" x2="235.4" y2="99.3"/><text class="index seq0" transform="rotate(398.6 245.1 87.1)" x="245.1" y="87.1">66</text><line class="back" x1="235.4" y1="99.3" x2="245.6" y2="141.0"/><text class="index seq0" transform="rotate(424.3 251.6 138.1)" x="251.6" y="138.1">67</text><line class="front" x1="245.6" y1="141.0" x2="139.6" y2="265.2"/><text class="index seq0" transform="rotate(561.4 133.9 279.7)" x="133.9" y="279.7">68</text><line class="back" x1="139.6" y1="265.2" x2="112.3" y2="233.2"/><text class="index seq0" transform="rotate(227.1 102.2 242.6)" x="102.2" y="242.6">69</text><line class="front" x1="112.3" y1="233.2" x2="180.9" y2="96.9"/><text class="index seq0" transform="rotate(364.3 181.8 84.3)" x="181.8" y="84.3">70</text><line class="back" x1="180.9" y1="96.9" x2="227.8" y2="83.5"/><text class="index seq0" transform="rotate(390.0 236.3 68.8)" x="236.3" y="68.8">71</text><line class="front" x1="227.8" y1="83.5" x2="194.0" y2="258.4"/><text class="index seq0" transform="rotate(527.1 197.1 271.9)" x="197.1" y="271.9">72</text><line class="back" x1="194.0" y1="258.4" x2="156.0" y2="258.4"/><text class="index seq0" transform="rotate(192.9 152.9 271.9)" x="152.9" y="271.9">73</text><line class="front" x1="156.0" y1="258.4" x2="122.2" y2="83.5"/><text class="index seq0" transform="rotate(330.0 113.7 68.8)" x="113.7" y="68.8">74</text><line class="back" x1="122.2" y1="83.5" x2="169.1" y2="96.9"/><text class="index seq0" transform="rotate(355.7 168.2 84.3)" x="168.2" y="84.3">75</text><line class="front" x1="169.1" y1="96.9" x2="237.7" y2="233.2"/><text class="index seq0" transform="rotate(492.9 247.8 242.6)" x="247.8" y="242.6">76</text><line class="back" x1="237.7" y1="233.2" x2="210.4" y2="265.2"/><text class="index seq0" transform="rotate(158.6 216.1 279.7)" x="216.1" y="279.7">77</text><line class="front" x1="210.4" y1="265.2" x2="104.4" y2="141.0"/><text class="index seq0" transform="rotate(295.7 93.1 135.6)" x="93.1" y="135.6">78</text><line class="back" x1="104.4" y1="141.0" x2="114.6" y2="99.3"/><text class="index seq0" transform="rotate(321.4 104.9 87.1)" x="104.9" y="87.1">79</text><line class="front" x1="114.6" y1="99.3" x2="270.8" y2="189.4"/><text class="index seq0" transform="rotate(458.6 286.2 191.8)" x="286.2" y="191.8">80</text><line class="back" x1="270.8" y1="189.4" x2="239.7" y2="219.1"/><text class="index seq0" transform="rotate(124.3 250.1 226.2)" x="250.1" y="226.2">81</text><line class="front" x1="239.7" y1="219.1" x2="79.2" y2="189.4"/><text class="index seq0" transform="rotate(261.4 63.8 191.8)" x="63.8" y="191.8">82</text><line class="back" x1="79.2" y1="189.4" x2="93.2" y2="149.8"/><text class="index seq0" transform="rotate(287.1 80.1 145.7)" x="80.1" y="145.7">83</text><line class="front" x1="93.2" y1="149.8" x2="245.6" y2="141.0"/><text class="index seq0" transform="rotate(424.3 256.9 135.6)" x="256.9" y="135.6">84</text><line class="back" x1="245.6" y1="141.0" x2="280.6" y2="175.0"/><text class="index seq0" transform="rotate(450.0 305.6 175.0)" x="305.6" y="175.0">85</text><text class="summary seq0" x="10" y="15">Sequence: 16, 3</text><text class="summary seq0" x="10" y="27">Length: 93"</text><path stroke="#dddddd" d="M 312.6 175.0 L 299.8 193.8 L 281.5 207.9 L 266.9 219.3 L 259.3 232.5 L 256.7 250.8 L 253.7 273.7 L 243.8 294.2 L 221.1 292.5 L 199.8 283.7 L 182.6 276.8 L 167.4 276.8 L 150.2 283.7 L 128.9 292.5 L 106.2 294.2 L 96.3 273.7 L 93.3 250.8 L 90.7 232.5 L 83.1 219.3 L 68.5 207.9 L 50.2 193.8 L 37.4 175.0 L 50.2 156.2 L 68.5 142.1 L 83.1 130.7 L 90.7 117.5 L 93.3 99.2 L 96.3 76.3 L 106.2 55.8 L 128.9 57.5 L 150.2 66.3 L 167.4 73.2 L 182.6 73.2 L 199.8 66.3 L 221.1 57.5 L 243.8 55.8 L 253.7 76.3 L 256.7 99.2 L 259.3 117.5 L 266.9 130.7 L 281.5 142.1 L 299.8 156.2 Z " fill-opacity="0"/></svg>
