<!--
Made with circle-stitcher 0.0.1
https://github.com/rbedia/circle-stitcher
-->
<svg xmlns="http://www.w3.org/2000/svg" viewBox="0 0 350 350" width="700" height="700"><style>
.hole {
    fill: #EBE4D6;
    stroke: #333333;
    r: 2px;
}
.index {
    font-size: 8px;
    text-anchor: middle;
}
.front {
    stroke: #2B8FF3;
    stroke-width: 1px;
}
.back {
    stroke: #F50C00;
    stroke-width: 1px;
}
.summary {
    font-size: 12px;
}

.seq0 {
    fill: #000000
}

.seq1 {
    fill: #099A3C
}

.seq2 {
    fill: #8B1828
}

.seq3 {
    fill: #515F45
}
</style><rect x="0" y="0" width="350" height="350" fill="#ffffff"/><circle stroke="#dddddd" cx="175.0" cy="175.0" r="67.2" fill="#EBE4D6"/><circle class="hole" cx="280.6" cy="175.0"/><circle class="hole" cx="268.3" cy="191.9"/><circle class="hole" cx="253.2" cy="204.4"/><circle class="hole" cx="240.9" cy="214.4"/><circle class="hole" cx="232.8" cy="225.5"/><circle class="hole" cx="227.1" cy="240.3"/><circle class="hole" cx="219.9" cy="258.5"/><circle class="hole" cx="207.6" cy="275.4"/><circle class="hole" cx="187.7" cy="268.9"/><circle class="hole" cx="171.3" cy="258.5"/><circle class="hole" cx="157.9" cy="249.9"/><circle class="hole" cx="144.8" cy="245.6"/><circle class="hole" cx="129.0" cy="244.7"/><circle class="hole" cx="109.5" cy="243.5"/><circle class="hole" cx="89.6" cy="237.1"/><circle class="hole" cx="89.6" cy="216.1"/><circle class="hole" cx="94.5" cy="197.2"/><circle class="hole" cx="98.5" cy="181.9"/><circle class="hole" cx="98.5" cy="168.1"/><circle class="hole" cx="94.5" cy="152.8"/><circle class="hole" cx="89.6" cy="133.9"/><circle class="hole" cx="89.6" cy="112.9"/><circle class="hole" cx="109.5" cy="106.5"/><circle class="hole" cx="129.0" cy="105.3"/><circle class="hole" cx="144.8" cy="104.4"/><circle class="hole" cx="157.9" cy="100.1"/><circle class="hole" cx="171.3" cy="91.5"/><circle class="hole" cx="187.7" cy="81.1"/><circle class="hole" cx="207.6" cy="74.6"/><circle class="hole" cx="219.9" cy="91.5"/><circle class="hole" cx="227.1" cy="109.7"/><circle class="hole" cx="232.8" cy="124.5"/><circle class="hole" cx="240.9" cy="135.6"/><circle class="hole" cx="253.2" cy="145.6"/><circle class="hole" cx="268.3" cy="158.1"/><a href="https://github.com/rbedia/circle-stitcher"><text font-size="10" fill="#777777" transform="rotate(90 340 5)" x="340" y="5">circle-stitcher 0.0.1</text></a><text class="summary" x="10" y="345">Instructions: H 35 OC 1.1 K 0.9 N 5 M 2 IC 0.7 L 15,1</text><text class="index seq0" transform="rotate(90.0 289.6 175.0)" x="289.6" y="175.0">1</text><line class="front" x1="280.6" y1="175.0" x2="89.6" y2="216.1"/><text class="index seq0" transform="rotate(244.3 82.3 219.6)" x="82.3" y="219.6">2</text><line class="back" x1="89.6" y1="216.1" x2="94.5" y2="197.2"/><text class="index seq0" transform="rotate(254.6 87.6 199.1)" x="87.6" y="199.1">3</text><line class="front" x1="94.5" y1="197.2" x2="232.8" y2="124.5"/><text class="index seq0" transform="rotate(408.9 237.8 120.2)" x="237.8" y="120.2">4</text><line class="back" x1="232.8" y1="124.5" x2="240.9" y2="135.6"/><text class="index seq0" transform="rotate(419.1 246.6 132.3)" x="246.6" y="132.3">5</text><line class="front" x1="240.9" y1="135.6" x2="129.0" y2="244.7"/><text class="index seq0" transform="rotate(573.4 125.1 250.7)" x="125.1" y="250.7">6</text><line class="back" x1="129.0" y1="244.7" x2="109.5" y2="243.5"/><text class="index seq0" transform="rotate(223.7 103.9 249.3)" x="103.9" y="249.3">7</text><line class="front" x1="109.5" y1="243.5" x2="207.6" y2="74.6"/><text class="index seq0" transform="rotate(378.0 210.4 66.0)" x="210.4" y="66.0">8</text><line class="back" x1="207.6" y1="74.6" x2="219.9" y2="91.5"/><text class="index seq0" transform="rotate(388.3 223.7 84.4)" x="223.7" y="84.4">9</text><line class="front" x1="219.9" y1="91.5" x2="171.3" y2="258.5"/><text class="index seq0" transform="rotate(542.6 170.9 265.6)" x="170.9" y="265.6">10</text><line class="back" x1="171.3" y1="258.5" x2="157.9" y2="249.9"/><text class="index seq0" transform="rotate(192.9 156.5 256.3)" x="156.5" y="256.3">11</text><line class="front" x1="157.9" y1="249.9" x2="157.9" y2="100.1"/><text class="index seq0" transform="rotate(347.1 156.5 93.7)" x="156.5" y="93.7">12</text><line class="back" x1="157.9" y1="100.1" x2="171.3" y2="91.5"/><text class="index seq0" transform="rotate(357.4 170.9 84.4)" x="170.9" y="84.4">13</text><line class="front" x1="171.3" y1="91.5" x2="219.9" y2="258.5"/><text class="index seq0" transform="rotate(511.7 223.7 265.6)" x="223.7" y="265.6">14</text><line class="back" x1="219.9" y1="258.5" x2="207.6" y2="275.4"/><text class="index seq0" transform="rotate(162.0 210.4 284.0)" x="210.4" y="284.0">15</text><line class="front" x1="207.6" y1="275.4" x2="109.5" y2="106.5"/><text class="index seq0" transform="rotate(316.3 103.9 100.7)" x="103.9" y="100.7">16</text><line class="back" x1="109.5" y1="106.5" x2="129.0" y2="105.3"/><text class="index seq0" transform="rotate(326.6 125.1 99.3)" x="125.1" y="99.3">17</text><line class="front" x1="129.0" y1="105.3" x2="240.9" y2="214.4"/><text class="index seq0" transform="rotate(480.9 246.6 217.7)" x="246.6" y="217.7">18</text><line class="back" x1="240.9" y1="214.4" x2="232.8" y2="225.5"/><text class="index seq0" transform="rotate(131.1 237.8 229.8)" x="237.8" y="229.8">19</text><line class="front" x1="232.8" y1="225.5" x2="94.5" y2="152.8"/><text class="index seq0" transform="rotate(285.4 87.6 150.9)" x="87.6" y="150.9">20</text><line class="back" x1="94.5" y1="152.8" x2="89.6" y2="133.9"/><text class="index seq0" transform="rotate(295.7 82.3 130.4)" x="82.3" y="130.4">21</text><line class="front" x1="89.6" y1="133.9" x2="280.6" y2="175.0"/><text class="index seq0" transform="rotate(450.0 297.6 175.0)" x="297.6" y="175.0">22</text><line class="back" x1="280.6" y1="175.0" x2="268.3" y2="191.9"/><text class="index seq0" transform="rotate(100.3 276.2 193.4)" x="276.2" y="193.4">23</text><line class="front" x1="268.3" y1="191.9" x2="94.5" y2="197.2"/><text class="index seq0" transform="rotate(254.6 81.5 200.8)" x="81.5" y="200.8">24</text><line class="back" x1="94.5" y1="197.2" x2="98.5" y2="181.9"/><text class="index seq0" transform="rotate(264.9 92.0 182.5)" x="92.0" y="182.5">25</text><line class="front" x1="98.5" y1="181.9" x2="240.9" y2="135.6"/><text class="index seq0" transform="rotate(419.1 251.5 129.3)" x="251.5" y="129.3">26</text><line class="back" x1="240.9" y1="135.6" x2="253.2" y2="145.6"/><text class="index seq0" transform="rotate(429.4 259.9 143.1)" x="259.9" y="143.1">27</text><line class="front" x1="253.2" y1="145.6" x2="109.5" y2="243.5"/><text class="index seq0" transform="rotate(583.7 99.0 254.5)" x="99.0" y="254.5">28</text><line class="back" x1="109.5" y1="243.5" x2="89.6" y2="237.1"/><text class="index seq0" transform="rotate(234.0 82.3 242.4)" x="82.3" y="242.4">29</text><line class="front" x1="89.6" y1="237.1" x2="219.9" y2="91.5"/><text class="index seq0" transform="rotate(388.3 227.1 78.1)" x="227.1" y="78.1">30</text><line class="back" x1="219.9" y1="91.5" x2="227.1" y2="109.7"/><text class="index seq0" transform="rotate(398.6 231.5 104.1)" x="231.5" y="104.1">31</text><line class="front" x1="227.1" y1="109.7" x2="157.9" y2="249.9"/><text class="index seq0" transform="rotate(552.9 155.2 261.9)" x="155.2" y="261.9">32</text><line class="back" x1="157.9" y1="249.9" x2="144.8" y2="245.6"/><text class="index seq0" transform="rotate(203.1 142.2 251.6)" x="142.2" y="251.6">33</text><line class="front" x1="144.8" y1="245.6" x2="171.3" y2="91.5"/><text class="index seq0" transform="rotate(357.4 170.6 78.1)" x="170.6" y="78.1">34</text><line class="back" x1="171.3" y1="91.5" x2="187.7" y2="81.1"/><text class="index seq0" transform="rotate(367.7 188.8 73.1)" x="188.8" y="73.1">35</text><line class="front" x1="187.7" y1="81.1" x2="207.6" y2="275.4"/><text class="index seq0" transform="rotate(522.0 212.9 291.6)" x="212.9" y="291.6">36</text><line class="back" x1="207.6" y1="275.4" x2="187.7" y2="268.9"/><text class="index seq0" transform="rotate(172.3 188.8 276.9)" x="188.8" y="276.9">37</text><line class="front" x1="187.7" y1="268.9" x2="129.0" y2="105.3"/><text class="index seq0" transform="rotate(326.6 121.6 94.1)" x="121.6" y="94.1">38</text><line class="back" x1="129.0" y1="105.3" x2="144.8" y2="104.4"/><text class="index seq0" transform="rotate(336.9 142.2 98.4)" x="142.2" y="98.4">39</text><line class="front" x1="144.8" y1="104.4" x2="232.8" y2="225.5"/><text class="index seq0" transform="rotate(491.1 242.1 233.7)" x="242.1" y="233.7">40</text><line class="back" x1="232.8" y1="225.5" x2="227.1" y2="240.3"/><text class="index seq0" transform="rotate(141.4 231.5 245.9)" x="231.5" y="245.9">41</text><line class="front" x1="227.1" y1="240.3" x2="89.6" y2="133.9"/><text class="index seq0" transform="rotate(295.7 75.9 127.3)" x="75.9" y="127.3">42</text><line class="back" x1="89.6" y1="133.9" x2="89.6" y2="112.9"/><text class="index seq0" transform="rotate(306.0 82.3 107.6)" x="82.3" y="107.6">43</text><line class="front" x1="89.6" y1="112.9" x2="268.3" y2="191.9"/><text class="index seq0" transform="rotate(460.3 283.3 194.6)" x="283.3" y="194.6">44</text><line class="back" x1="268.3" y1="191.9" x2="253.2" y2="204.4"/><text class="index seq0" transform="rotate(110.6 259.9 206.9)" x="259.9" y="206.9">45</text><line class="front" x1="253.2" y1="204.4" x2="98.5" y2="181.9"/><text class="index seq0" transform="rotate(264.9 86.2 183.0)" x="86.2" y="183.0">46</text><line class="back" x1="98.5" y1="181.9" x2="98.5" y2="168.1"/><text class="index seq0" transform="rotate(275.1 92.0 167.5)" x="92.0" y="167.5">47</text><line class="front" x1="98.5" y1="168.1" x2="253.2" y2="145.6"/><text class="index seq0" transform="rotate(429.4 265.8 140.9)" x="265.8" y="140.9">48</text><line class="back" x1="253.2" y1="145.6" x2="268.3" y2="158.1"/><text class="index seq0" transform="rotate(439.7 276.2 156.6)" x="276.2" y="156.6">49</text><line class="front" x1="268.3" y1="158.1" x2="89.6" y2="237.1"/><text class="index seq0" transform="rotate(594.0 75.8 247.1)" x="75.8" y="247.1">50</text><line class="back" x1="89.6" y1="237.1" x2="89.6" y2="216.1"/><text class="index seq0" transform="rotate(244.3 75.9 222.7)" x="75.9" y="222.7">51</text><line class="front" x1="89.6" y1="216.1" x2="227.1" y2="109.7"/><text class="index seq0" transform="rotate(398.6 235.5 99.2)" x="235.5" y="99.2">52</text><line class="back" x1="227.1" y1="109.7" x2="232.8" y2="124.5"/><text class="index seq0" transform="rotate(408.9 242.1 116.3)" x="242.1" y="116.3">53</text><line class="front" x1="232.8" y1="124.5" x2="144.8" y2="245.6"/><text class="index seq0" transform="rotate(563.1 140.0 257.0)" x="140.0" y="257.0">54</text><line class="back" x1="144.8" y1="245.6" x2="129.0" y2="244.7"/><text class="index seq0" transform="rotate(213.4 121.6 255.9)" x="121.6" y="255.9">55</text><line class="front" x1="129.0" y1="244.7" x2="187.7" y2="81.1"/><text class="index seq0" transform="rotate(367.7 189.8 66.0)" x="189.8" y="66.0">56</text><line class="back" x1="187.7" y1="81.1" x2="207.6" y2="74.6"/><text class="index seq0" transform="rotate(378.0 212.9 58.4)" x="212.9" y="58.4">57</text><line class="front" x1="207.6" y1="74.6" x2="187.7" y2="268.9"/><text class="index seq0" transform="rotate(532.3 189.8 284.0)" x="189.8" y="284.0">58</text><line class="back" x1="187.7" y1="268.9" x2="171.3" y2="258.5"/><text class="index seq0" transform="rotate(182.6 170.6 271.9)" x="170.6" y="271.9">59</text><line class="front" x1="171.3" y1="258.5" x2="144.8" y2="104.4"/><text class="index seq0" transform="rotate(336.9 140.0 93.0)" x="140.0" y="93.0">60</text><line class="back" x1="144.8" y1="104.4" x2="157.9" y2="100.1"/><text class="index seq0" transform="rotate(347.1 155.2 88.1)" x="155.2" y="88.1">61</text><line class="front" x1="157.9" y1="100.1" x2="227.1" y2="240.3"/><text class="index seq0" transform="rotate(501.4 235.5 250.8)" x="235.5" y="250.8">62</text><line class="back" x1="227.1" y1="240.3" x2="219.9" y2="258.5"/><text class="index seq0" transform="rotate(151.7 227.1 271.9)" x="227.1" y="271.9">63</text><line class="front" x1="219.9" y1="258.5" x2="89.6" y2="112.9"/><text class="index seq0" transform="rotate(306.0 75.8 102.9)" x="75.8" y="102.9">64</text><line class="back" x1="89.6" y1="112.9" x2="109.5" y2="106.5"/><text class="index seq0" transform="rotate(316.3 99.0 95.5)" x="99.0" y="95.5">65</text><line class="front" x1="109.5" y1="106.5" x2="253.2" y2="204.4"/><text class="index seq0" transform="rotate(470.6 265.8 209.1)" x="265.8" y="209.1">66</text><line class="back" x1="253.2" y1="204.4" x2="240.9" y2="214.4"/><text class="index seq0" transform="rotate(120.9 251.5 220.7)" x="251.5" y="220.7">67</text><line class="front" x1="240.9" y1="214.4" x2="98.5" y2="168.1"/><text class="index seq0" transform="rotate(275.1 86.2 167.0)" x="86.2" y="167.0">68</text><line class="back" x1="98.5" y1="168.1" x2="94.5" y2="152.8"/><text class="index seq0" transform="rotate(285.4 81.5 149.2)" x="81.5" y="149.2">69</text><line class="front" x1="94.5" y1="152.8" x2="268.3" y2="158.1"/><text class="index seq0" transform="rotate(439.7 283.3 155.4)" x="283.3" y="155.4">70</text><line class="back" x1="268.3" y1="158.1" x2="280.6" y2="175.0"/><text class="index seq0" transform="rotate(450.0 305.6 175.0)" x="305.6" y="175.0">71</text><text class="summary seq0" x="10" y="15">Sequence: 15, 1</text><text class="summary seq0" x="10" y="27">Length: 70"</text><path stroke="#dddddd" d="M 312.6 175.0 L 296.5 197.1 L 276.9 213.3 L 260.9 226.3 L 250.4 240.8 L 242.9 260.1 L 233.5 283.8 L 217.5 305.9 L 191.6 297.4 L 170.1 283.8 L 152.7 272.6 L 135.7 267.0 L 115.0 265.9 L 89.7 264.3 L 63.7 255.9 L 63.7 228.6 L 70.1 204.0 L 75.3 184.0 L 75.3 166.0 L 70.1 146.0 L 63.7 121.4 L 63.7 94.1 L 89.7 85.7 L 115.0 84.1 L 135.7 83.0 L 152.7 77.4 L 170.1 66.2 L 191.6 52.6 L 217.5 44.1 L 233.5 66.2 L 242.9 89.9 L 250.4 109.2 L 260.9 123.7 L 276.9 136.7 L 296.5 152.9 Z " fill-opacity="0"/></svg>
