<svg xmlns="http://www.w3.org/2000/svg" viewBox="0 0 350 350" width="700" height="700"><style>
.hole {
    fill: #EBE4D6;
    stroke: #333333;
    r: 2px;
}
.index {
    font-size: 8px;
    text-anchor: middle;
}
.front {
    stroke: #2B8FF3;
    stroke-width: 1px;
}
.back {
    stroke: #F50C00;
    stroke-width: 1px;
}
.summary {
    font-size: 12px;
}
.seq1 {
    fill: #099A3C
}
.seq2 {
    fill: #8B1828
}
.seq3 {
    fill: #515F45
}
</style><rect x="0" y="0" width="350" height="350" fill="#ffffff"/><circle stroke="#dddddd" cx="175.0" cy="175.0" r="60" fill="#EBE4D6"/><circle class="hole" cx="245.0" cy="175.0"/><circle class="hole" cx="243.7" cy="188.7"/><circle class="hole" cx="239.7" cy="201.8"/><circle class="hole" cx="233.2" cy="213.9"/><circle class="hole" cx="224.5" cy="224.5"/><circle class="hole" cx="213.9" cy="233.2"/><circle class="hole" cx="201.8" cy="239.7"/><circle class="hole" cx="188.7" cy="243.7"/><circle class="hole" cx="175.0" cy="245.0"/><circle class="hole" cx="161.3" cy="243.7"/><circle class="hole" cx="148.2" cy="239.7"/><circle class="hole" cx="136.1" cy="233.2"/><circle class="hole" cx="125.5" cy="224.5"/><circle class="hole" cx="116.8" cy="213.9"/><circle class="hole" cx="110.3" cy="201.8"/><circle class="hole" cx="106.3" cy="188.7"/><circle class="hole" cx="105.0" cy="175.0"/><circle class="hole" cx="106.3" cy="161.3"/><circle class="hole" cx="110.3" cy="148.2"/><circle class="hole" cx="116.8" cy="136.1"/><circle class="hole" cx="125.5" cy="125.5"/><circle class="hole" cx="136.1" cy="116.8"/><circle class="hole" cx="148.2" cy="110.3"/><circle class="hole" cx="161.3" cy="106.3"/><circle class="hole" cx="175.0" cy="105.0"/><circle class="hole" cx="188.7" cy="106.3"/><circle class="hole" cx="201.8" cy="110.3"/><circle class="hole" cx="213.9" cy="116.8"/><circle class="hole" cx="224.5" cy="125.5"/><circle class="hole" cx="233.2" cy="136.1"/><circle class="hole" cx="239.7" cy="148.2"/><circle class="hole" cx="243.7" cy="161.3"/><text class="summary" x="10" y="345">Instructions: L 10,1</text><text class="index seq0" transform="rotate(90.0 254.0 175.0)" x="254.0" y="175.0">1</text><line class="front" x1="245.0" y1="175.0" x2="148.2" y2="239.7"/><text class="index seq0" transform="rotate(202.5 144.8 248.0)" x="144.8" y="248.0">2</text><line class="back" x1="148.2" y1="239.7" x2="136.1" y2="233.2"/><text class="index seq0" transform="rotate(213.8 131.1 240.7)" x="131.1" y="240.7">3</text><line class="front" x1="136.1" y1="233.2" x2="136.1" y2="116.8"/><text class="index seq0" transform="rotate(326.2 131.1 109.3)" x="131.1" y="109.3">4</text><line class="back" x1="136.1" y1="116.8" x2="148.2" y2="110.3"/><text class="index seq0" transform="rotate(337.5 144.8 102.0)" x="144.8" y="102.0">5</text><line class="front" x1="148.2" y1="110.3" x2="245.0" y2="175.0"/><text class="index seq0" transform="rotate(450.0 262.0 175.0)" x="262.0" y="175.0">6</text><line class="back" x1="245.0" y1="175.0" x2="243.7" y2="188.7"/><text class="index seq0" transform="rotate(101.2 252.5 190.4)" x="252.5" y="190.4">7</text><line class="front" x1="243.7" y1="188.7" x2="136.1" y2="233.2"/><text class="index seq0" transform="rotate(213.8 126.7 247.3)" x="126.7" y="247.3">8</text><line class="back" x1="136.1" y1="233.2" x2="125.5" y2="224.5"/><text class="index seq0" transform="rotate(225.0 119.1 230.9)" x="119.1" y="230.9">9</text><line class="front" x1="125.5" y1="224.5" x2="148.2" y2="110.3"/><text class="index seq0" transform="rotate(337.5 141.7 94.6)" x="141.7" y="94.6">10</text><line class="back" x1="148.2" y1="110.3" x2="161.3" y2="106.3"/><text class="index seq0" transform="rotate(348.8 159.6 97.5)" x="159.6" y="97.5">11</text><line class="front" x1="161.3" y1="106.3" x2="243.7" y2="188.7"/><text class="index seq0" transform="rotate(461.2 260.3 192.0)" x="260.3" y="192.0">12</text><line class="back" x1="243.7" y1="188.7" x2="239.7" y2="201.8"/><text class="index seq0" transform="rotate(112.5 248.0 205.2)" x="248.0" y="205.2">13</text><line class="front" x1="239.7" y1="201.8" x2="125.5" y2="224.5"/><text class="index seq0" transform="rotate(225.0 113.5 236.5)" x="113.5" y="236.5">14</text><line class="back" x1="125.5" y1="224.5" x2="116.8" y2="213.9"/><text class="index seq0" transform="rotate(236.2 109.3 218.9)" x="109.3" y="218.9">15</text><line class="front" x1="116.8" y1="213.9" x2="161.3" y2="106.3"/><text class="index seq0" transform="rotate(348.8 158.0 89.7)" x="158.0" y="89.7">16</text><line class="back" x1="161.3" y1="106.3" x2="175.0" y2="105.0"/><text class="index seq0" transform="rotate(360.0 175.0 96.0)" x="175.0" y="96.0">17</text><line class="front" x1="175.0" y1="105.0" x2="239.7" y2="201.8"/><text class="index seq0" transform="rotate(472.5 255.4 208.3)" x="255.4" y="208.3">18</text><line class="back" x1="239.7" y1="201.8" x2="233.2" y2="213.9"/><text class="index seq0" transform="rotate(123.8 240.7 218.9)" x="240.7" y="218.9">19</text><line class="front" x1="233.2" y1="213.9" x2="116.8" y2="213.9"/><text class="index seq0" transform="rotate(236.2 102.7 223.3)" x="102.7" y="223.3">20</text><line class="back" x1="116.8" y1="213.9" x2="110.3" y2="201.8"/><text class="index seq0" transform="rotate(247.5 102.0 205.2)" x="102.0" y="205.2">21</text><line class="front" x1="110.3" y1="201.8" x2="175.0" y2="105.0"/><text class="index seq0" transform="rotate(360.0 175.0 88.0)" x="175.0" y="88.0">22</text><line class="back" x1="175.0" y1="105.0" x2="188.7" y2="106.3"/><text class="index seq0" transform="rotate(371.2 190.4 97.5)" x="190.4" y="97.5">23</text><line class="front" x1="188.7" y1="106.3" x2="233.2" y2="213.9"/><text class="index seq0" transform="rotate(483.8 247.3 223.3)" x="247.3" y="223.3">24</text><line class="back" x1="233.2" y1="213.9" x2="224.5" y2="224.5"/><text class="index seq0" transform="rotate(135.0 230.9 230.9)" x="230.9" y="230.9">25</text><line class="front" x1="224.5" y1="224.5" x2="110.3" y2="201.8"/><text class="index seq0" transform="rotate(247.5 94.6 208.3)" x="94.6" y="208.3">26</text><line class="back" x1="110.3" y1="201.8" x2="106.3" y2="188.7"/><text class="index seq0" transform="rotate(258.8 97.5 190.4)" x="97.5" y="190.4">27</text><line class="front" x1="106.3" y1="188.7" x2="188.7" y2="106.3"/><text class="index seq0" transform="rotate(371.2 192.0 89.7)" x="192.0" y="89.7">28</text><line class="back" x1="188.7" y1="106.3" x2="201.8" y2="110.3"/><text class="index seq0" transform="rotate(382.5 205.2 102.0)" x="205.2" y="102.0">29</text><line class="front" x1="201.8" y1="110.3" x2="224.5" y2="224.5"/><text class="index seq0" transform="rotate(495.0 236.5 236.5)" x="236.5" y="236.5">30</text><line class="back" x1="224.5" y1="224.5" x2="213.9" y2="233.2"/><text class="index seq0" transform="rotate(146.2 218.9 240.7)" x="218.9" y="240.7">31</text><line class="front" x1="213.9" y1="233.2" x2="106.3" y2="188.7"/><text class="index seq0" transform="rotate(258.8 89.7 192.0)" x="89.7" y="192.0">32</text><line class="back" x1="106.3" y1="188.7" x2="105.0" y2="175.0"/><text class="index seq0" transform="rotate(270.0 96.0 175.0)" x="96.0" y="175.0">33</text><line class="front" x1="105.0" y1="175.0" x2="201.8" y2="110.3"/><text class="index seq0" transform="rotate(382.5 208.3 94.6)" x="208.3" y="94.6">34</text><line class="back" x1="201.8" y1="110.3" x2="213.9" y2="116.8"/><text class="index seq0" transform="rotate(393.8 218.9 109.3)" x="218.9" y="109.3">35</text><line class="front" x1="213.9" y1="116.8" x2="213.9" y2="233.2"/><text class="index seq0" transform="rotate(506.2 223.3 247.3)" x="223.3" y="247.3">36</text><line class="back" x1="213.9" y1="233.2" x2="201.8" y2="239.7"/><text class="index seq0" transform="rotate(157.5 205.2 248.0)" x="205.2" y="248.0">37</text><line class="front" x1="201.8" y1="239.7" x2="105.0" y2="175.0"/><text class="index seq0" transform="rotate(270.0 88.0 175.0)" x="88.0" y="175.0">38</text><line class="back" x1="105.0" y1="175.0" x2="106.3" y2="161.3"/><text class="index seq0" transform="rotate(281.2 97.5 159.6)" x="97.5" y="159.6">39</text><line class="front" x1="106.3" y1="161.3" x2="213.9" y2="116.8"/><text class="index seq0" transform="rotate(393.8 223.3 102.7)" x="223.3" y="102.7">40</text><line class="back" x1="213.9" y1="116.8" x2="224.5" y2="125.5"/><text class="index seq0" transform="rotate(405.0 230.9 119.1)" x="230.9" y="119.1">41</text><line class="front" x1="224.5" y1="125.5" x2="201.8" y2="239.7"/><text class="index seq0" transform="rotate(517.5 208.3 255.4)" x="208.3" y="255.4">42</text><line class="back" x1="201.8" y1="239.7" x2="188.7" y2="243.7"/><text class="index seq0" transform="rotate(168.8 190.4 252.5)" x="190.4" y="252.5">43</text><line class="front" x1="188.7" y1="243.7" x2="106.3" y2="161.3"/><text class="index seq0" transform="rotate(281.2 89.7 158.0)" x="89.7" y="158.0">44</text><line class="back" x1="106.3" y1="161.3" x2="110.3" y2="148.2"/><text class="index seq0" transform="rotate(292.5 102.0 144.8)" x="102.0" y="144.8">45</text><line class="front" x1="110.3" y1="148.2" x2="224.5" y2="125.5"/><text class="index seq0" transform="rotate(405.0 236.5 113.5)" x="236.5" y="113.5">46</text><line class="back" x1="224.5" y1="125.5" x2="233.2" y2="136.1"/><text class="index seq0" transform="rotate(416.2 240.7 131.1)" x="240.7" y="131.1">47</text><line class="front" x1="233.2" y1="136.1" x2="188.7" y2="243.7"/><text class="index seq0" transform="rotate(528.8 192.0 260.3)" x="192.0" y="260.3">48</text><line class="back" x1="188.7" y1="243.7" x2="175.0" y2="245.0"/><text class="index seq0" transform="rotate(180.0 175.0 254.0)" x="175.0" y="254.0">49</text><line class="front" x1="175.0" y1="245.0" x2="110.3" y2="148.2"/><text class="index seq0" transform="rotate(292.5 94.6 141.7)" x="94.6" y="141.7">50</text><line class="back" x1="110.3" y1="148.2" x2="116.8" y2="136.1"/><text class="index seq0" transform="rotate(303.8 109.3 131.1)" x="109.3" y="131.1">51</text><line class="front" x1="116.8" y1="136.1" x2="233.2" y2="136.1"/><text class="index seq0" transform="rotate(416.2 247.3 126.7)" x="247.3" y="126.7">52</text><line class="back" x1="233.2" y1="136.1" x2="239.7" y2="148.2"/><text class="index seq0" transform="rotate(427.5 248.0 144.8)" x="248.0" y="144.8">53</text><line class="front" x1="239.7" y1="148.2" x2="175.0" y2="245.0"/><text class="index seq0" transform="rotate(540.0 175.0 262.0)" x="175.0" y="262.0">54</text><line class="back" x1="175.0" y1="245.0" x2="161.3" y2="243.7"/><text class="index seq0" transform="rotate(191.2 159.6 252.5)" x="159.6" y="252.5">55</text><line class="front" x1="161.3" y1="243.7" x2="116.8" y2="136.1"/><text class="index seq0" transform="rotate(303.8 102.7 126.7)" x="102.7" y="126.7">56</text><line class="back" x1="116.8" y1="136.1" x2="125.5" y2="125.5"/><text class="index seq0" transform="rotate(315.0 119.1 119.1)" x="119.1" y="119.1">57</text><line class="front" x1="125.5" y1="125.5" x2="239.7" y2="148.2"/><text class="index seq0" transform="rotate(427.5 255.4 141.7)" x="255.4" y="141.7">58</text><line class="back" x1="239.7" y1="148.2" x2="243.7" y2="161.3"/><text class="index seq0" transform="rotate(438.8 252.5 159.6)" x="252.5" y="159.6">59</text><line class="front" x1="243.7" y1="161.3" x2="161.3" y2="243.7"/><text class="index seq0" transform="rotate(551.2 158.0 260.3)" x="158.0" y="260.3">60</text><line class="back" x1="161.3" y1="243.7" x2="148.2" y2="239.7"/><text class="index seq0" transform="rotate(202.5 141.7 255.4)" x="141.7" y="255.4">61</text><line class="front" x1="148.2" y1="239.7" x2="125.5" y2="125.5"/><text class="index seq0" transform="rotate(315.0 113.5 113.5)" x="113.5" y="113.5">62</text><line class="back" x1="125.5" y1="125.5" x2="136.1" y2="116.8"/><text class="index seq0" transform="rotate(326.2 126.7 102.7)" x="126.7" y="102.7">63</text><line class="front" x1="136.1" y1="116.8" x2="243.7" y2="161.3"/><text class="index seq0" transform="rotate(438.8 260.3 158.0)" x="260.3" y="158.0">64</text><line class="back" x1="243.7" y1="161.3" x2="245.0" y2="175.0"/><text class="index seq0" transform="rotate(450.0 270.0 175.0)" x="270.0" y="175.0">65</text><text class="summary seq0" x="10" y="15">Sequence: 10, 1</text><text class="summary seq0" x="10" y="27">Length: 44"</text><path stroke="#dddddd" d="M 277.0 175.0 L 275.0 194.9 L 269.2 214.0 L 259.8 231.7 L 247.1 247.1 L 231.7 259.8 L 214.0 269.2 L 194.9 275.0 L 175.0 277.0 L 155.1 275.0 L 136.0 269.2 L 118.3 259.8 L 102.9 247.1 L 90.2 231.7 L 80.8 214.0 L 75.0 194.9 L 73.0 175.0 L 75.0 155.1 L 80.8 136.0 L 90.2 118.3 L 102.9 102.9 L 118.3 90.2 L 136.0 80.8 L 155.1 75.0 L 175.0 73.0 L 194.9 75.0 L 214.0 80.8 L 231.7 90.2 L 247.1 102.9 L 259.8 118.3 L 269.2 136.0 L 275.0 155.1 Z " fill-opacity="0"/></svg>
